<svg xmlns="http://www.w3.org/2000/svg" viewBox="0 0 400 400" width="400" height="400">
	<style>
		tspan { white-space:pre }
		.shp0 { fill: #000000 } 
	</style>
	<path id="Layer" class="shp0" d="M300.31 92.24C301.82 91.96 303.42 91.99 304.95 91.97C330.31 92.1 355.69 91.88 381.05 92.07C355.92 120.88 330.53 149.57 305.33 178.34C302.14 181.92 298.86 185.37 295.91 189.16C297.57 191.45 299.4 193.59 301.31 195.68C324.88 222.43 348.41 249.25 371.94 276.04C381.51 286.99 391.33 297.74 400.61 308.93C375.06 309.11 349.49 308.91 323.94 309.03C321.76 308.91 319.99 309.43 318.46 307.5C305.01 292.29 291.73 276.88 278.28 261.71C257.75 238.57 237.52 215.15 216.9 192.07C216.3 191.23 215.14 190.23 215.17 189.13C218.41 184.53 222.67 180.6 226.24 176.24C249.12 150.13 272.12 124.11 294.97 97.97C296.71 96.06 298.31 93.88 300.31 92.24Z" />
	<path id="Layer" class="shp0" d="M0 93.41C14.33 93.15 28.68 93.54 43 93.19C49.7 92.63 56.3 93.5 63 93.34C104 93.32 145 93.33 186 93.33C195.01 93.48 203.98 92.76 213 92.99C232.42 93.71 251.9 93.1 271.33 93.39C269.04 96.39 266.55 99.22 264.02 102.02C248.98 119.28 233.75 136.41 218.68 153.66C216.8 155.84 214.97 158.26 212.78 160.13C211.25 160.48 209.61 160.41 208.05 160.44C194.35 160.38 180.64 160.39 166.94 160.42C166.45 177.24 166.92 194.12 166.72 210.95C166.93 213.68 163.61 216.06 162.06 218.06C145.59 236.93 128.96 255.64 112.52 274.52C109.5 277.86 106.74 281.38 103.48 284.5C103.13 243.18 103.5 201.79 103.29 160.46C89.21 160.31 75.12 160.46 61.03 160.4C58.33 160.68 57.11 158.22 55.41 156.58C36.96 135.51 18.35 114.55 0 93.41Z" />
	<path id="Layer" class="shp0" d="M195.27 209.47C197.99 211.89 200.14 214.74 202.54 217.46C226.68 244.96 250.9 272.46 275.03 299.97C277.49 302.58 279.8 305.25 281.86 308.19C277.9 308.39 273.95 308.35 270 308.33C221 308.33 172 308.33 123 308.33C118.25 308.32 113.5 308.42 108.75 308.22C112.21 303.31 116.5 298.98 120.44 294.45C134.64 278.31 148.78 262.13 163.01 246.01C173.76 233.84 184.33 221.47 195.27 209.47Z" />
</svg>